<svg xmlns="http://www.w3.org/2000/svg" width="412" height="48" viewBox="0 0 412 48"><g transform="translate(-601 -477)"><rect width="412" height="48" rx="24" transform="translate(601 477)" fill="#ed225d"/><path d="M12.636,0q-.783,0-1.944-.054T8.194-.2Q6.858-.3,5.535-.419t-2.4-.229q-1.08-.108-1.7-.216a1.017,1.017,0,0,1,.081-.4.88.88,0,0,1,.162-.27l.756-.108a1.659,1.659,0,0,0,.783-.3A1.305,1.305,0,0,0,3.6-2.7a7.439,7.439,0,0,0,.122-1.539V-15.471a6.626,6.626,0,0,1,.081-1.147,2.651,2.651,0,0,1,.2-.688,1.442,1.442,0,0,1,.175-.3H1.7a.672.672,0,0,1-.189-.243,1.144,1.144,0,0,1-.108-.324,2.81,2.81,0,0,1,.486-.365,4.169,4.169,0,0,1,.661-.337,1.548,1.548,0,0,1,.473-.135h10.26a7.659,7.659,0,0,1,.972.324,9.776,9.776,0,0,1,1.08.513,10.533,10.533,0,0,1,1,.621,4.476,4.476,0,0,1,.729.621A9.489,9.489,0,0,1,18.076-13.8a23.327,23.327,0,0,1,.257,3.429,23.794,23.794,0,0,1-.2,3.159A21.935,21.935,0,0,1,17.6-4.482a8.954,8.954,0,0,1-.756,2,9.3,9.3,0,0,1-.9.783,10.324,10.324,0,0,1-1.107.742,11.8,11.8,0,0,1-1.161.594A6.05,6.05,0,0,1,12.636,0ZM5.967-1.836h7.56a3.075,3.075,0,0,0,.851-1.174A10.256,10.256,0,0,0,15-4.873a16.99,16.99,0,0,0,.378-2.281q.121-1.215.121-2.43,0-1.3-.081-2.457a14.881,14.881,0,0,0-.3-2.147,8.109,8.109,0,0,0-.567-1.728,3.716,3.716,0,0,0-.864-1.2,10.972,10.972,0,0,0-1.458-.243q-.945-.108-2.065-.189t-2.174-.081a1.334,1.334,0,0,0-1.269.567A3.171,3.171,0,0,0,6.4-15.5v11.88A3.756,3.756,0,0,1,6.251-2.5,2.533,2.533,0,0,1,5.967-1.836ZM27.027,0a4.214,4.214,0,0,1-1.444-.27A10.608,10.608,0,0,1,24.165-.9,8.377,8.377,0,0,1,23-1.647a4.984,4.984,0,0,1-.648-.567,3.431,3.431,0,0,1-.58-1.5,11.645,11.645,0,0,1-.2-2.227q0-1.08.094-2.079t.257-1.836q.162-.837.324-1.4.378-.243,1.053-.621t1.512-.743a14.823,14.823,0,0,1,1.7-.621,5.788,5.788,0,0,1,1.647-.257,3.659,3.659,0,0,1,1.134.216,9.484,9.484,0,0,1,1.309.554,12.382,12.382,0,0,1,1.174.675,2.633,2.633,0,0,1,.7.608,2.519,2.519,0,0,1,.338,1.012,15.141,15.141,0,0,1,.175,1.525q.054.81.054,1.431a18.976,18.976,0,0,1-.216,2.889,19.8,19.8,0,0,1-.459,2.268,8.493,8.493,0,0,1-.891.689,12.032,12.032,0,0,1-1.3.769,8.875,8.875,0,0,1-1.539.621A5.613,5.613,0,0,1,27.027,0Zm.351-1.917a3.735,3.735,0,0,0,.985-.175q.608-.175,1.148-.391a3.945,3.945,0,0,0,.729-.351,5.629,5.629,0,0,0,.284-1.391,16.533,16.533,0,0,0,.094-1.714q0-.891-.054-1.8t-.148-1.579a2.97,2.97,0,0,0-.2-.864,2.889,2.889,0,0,0-.621-.446,9.088,9.088,0,0,0-1.147-.58,2.922,2.922,0,0,0-1.121-.27,4.657,4.657,0,0,0-.931.135q-.608.135-1.188.31a4.866,4.866,0,0,0-.878.337,7.442,7.442,0,0,0-.175.837q-.095.567-.149,1.188t-.054,1.188q0,.972.081,1.823t.189,1.431a2.4,2.4,0,0,0,.216.743q.108.108.445.378a5.82,5.82,0,0,0,.8.526q.459.257.918.459A2.011,2.011,0,0,0,27.378-1.917ZM42.606,0A3.752,3.752,0,0,1,41.3-.257a8.116,8.116,0,0,1-1.323-.634,9.97,9.97,0,0,1-1.093-.743,8.433,8.433,0,0,1-.675-.581L36.8-9.747q-.108-.459-.284-1.026a1.1,1.1,0,0,0-.743-.756l-1.4-.513a1.087,1.087,0,0,1,.094-.486,2.771,2.771,0,0,1,.149-.27,5.776,5.776,0,0,1,.729-.324,7.954,7.954,0,0,1,.864-.27,2.954,2.954,0,0,1,.648-.108,1.87,1.87,0,0,1,1.5.689,3.51,3.51,0,0,1,.743,1.8L40.311-3.51q.3.3.877.769a3.667,3.667,0,0,0,1.391.688,10.611,10.611,0,0,0,1.039-1.472q.527-.877,1.026-1.917a20.611,20.611,0,0,0,.877-2.12L45.09-9.747a6.043,6.043,0,0,0-.27-1.053,1.133,1.133,0,0,0-.729-.729l-1.431-.513a1.37,1.37,0,0,1,.122-.486,2.771,2.771,0,0,1,.148-.27,6.13,6.13,0,0,1,.715-.324,7.173,7.173,0,0,1,.851-.27,2.954,2.954,0,0,1,.648-.108,1.913,1.913,0,0,1,1.485.661,3.452,3.452,0,0,1,.783,1.769L48.6-3.429q.3.243.891.716A4.223,4.223,0,0,0,50.841-2a9.473,9.473,0,0,0,1.08-1.688,22.24,22.24,0,0,0,1.013-2.268,24.48,24.48,0,0,0,.81-2.5,14.86,14.86,0,0,0,.445-2.4,3.311,3.311,0,0,0-.675-.418q-.459-.229-.985-.459t-.986-.4q-.459-.176-.7-.257a1.258,1.258,0,0,1,.108-.432,1.778,1.778,0,0,1,.162-.27,5.432,5.432,0,0,1,.77-.2q.472-.094.986-.148a9.076,9.076,0,0,1,.945-.054,1.623,1.623,0,0,1,.783.27,8.015,8.015,0,0,1,.918.635,6.043,6.043,0,0,1,.77.715,1.018,1.018,0,0,1,.311.513,8.865,8.865,0,0,1-.284,2.039,22.191,22.191,0,0,1-.756,2.457q-.472,1.283-1.053,2.5a18.593,18.593,0,0,1-1.229,2.2A9.127,9.127,0,0,1,52-.594,1.762,1.762,0,0,1,50.841,0a3.538,3.538,0,0,1-1.283-.257A8.28,8.28,0,0,1,48.29-.877a8.881,8.881,0,0,1-1.053-.729,5.66,5.66,0,0,1-.634-.581l-.459-2.106a19.189,19.189,0,0,1-1.175,2.079A10.457,10.457,0,0,1,43.727-.621,1.678,1.678,0,0,1,42.606,0ZM63.342,0a6.4,6.4,0,0,1-.783-.095q-.594-.095-1.336-.229T59.832-.608a8.788,8.788,0,0,1-.945-.257.923.923,0,0,1,.081-.392.9.9,0,0,1,.162-.257l.756-.135a1.025,1.025,0,0,0,.688-.473,3.394,3.394,0,0,0,.257-1.633V-10.8a1.017,1.017,0,0,0-.081-.4.509.509,0,0,0-.351-.27l-1.62-.54a2.714,2.714,0,0,1,.121-.527.74.74,0,0,1,.149-.257,7.223,7.223,0,0,1,1.188-.472A4.117,4.117,0,0,1,61.4-13.5a1.748,1.748,0,0,1,1.269.5,1.712,1.712,0,0,1,.513,1.283q.648-.378,1.337-.8a10.792,10.792,0,0,1,1.35-.7,3,3,0,0,1,1.147-.284,4.414,4.414,0,0,1,1.364.243,6.852,6.852,0,0,1,1.431.661,5.333,5.333,0,0,1,1.12.878,1.334,1.334,0,0,1,.432.891V-3.24a4.376,4.376,0,0,1-.094.958,1.515,1.515,0,0,1-.2.554l2.268.243a1.058,1.058,0,0,1,.108.243,1.1,1.1,0,0,1,.054.351,1.332,1.332,0,0,1-.513.418,5.258,5.258,0,0,1-.77.338A2.153,2.153,0,0,1,71.523,0a6.276,6.276,0,0,1-.81-.095q-.594-.095-1.31-.229t-1.35-.284q-.634-.149-.958-.257a.737.737,0,0,1,.094-.378,2.847,2.847,0,0,1,.176-.27l.675-.108a1.084,1.084,0,0,0,.473-.216,1.156,1.156,0,0,0,.324-.607,5.309,5.309,0,0,0,.121-1.309V-9.882a.784.784,0,0,0-.311-.554,3.6,3.6,0,0,0-.743-.513,6.727,6.727,0,0,0-.837-.378,1.983,1.983,0,0,0-.621-.149,2.415,2.415,0,0,0-.621.135q-.432.135-.945.324t-.959.378q-.446.189-.661.27v7.074a3.85,3.85,0,0,1-.108.959,2.637,2.637,0,0,1-.216.607l2.187.243a1.5,1.5,0,0,1,.121.243.9.9,0,0,1,.068.351,1.653,1.653,0,0,1-.527.418,4.727,4.727,0,0,1-.756.338A2.153,2.153,0,0,1,63.342,0ZM79.515,0a6.276,6.276,0,0,1-.81-.095q-.594-.095-1.336-.229T75.978-.608a8.788,8.788,0,0,1-.945-.257.923.923,0,0,1,.081-.392.9.9,0,0,1,.162-.257L76-1.647a.985.985,0,0,0,.7-.486,3.57,3.57,0,0,0,.243-1.62V-18.9a.812.812,0,0,0-.094-.392.562.562,0,0,0-.338-.257L74.574-20.2a1.519,1.519,0,0,1,.108-.432,1.829,1.829,0,0,1,.135-.27,4.6,4.6,0,0,1,.824-.324,10.522,10.522,0,0,1,1.08-.27,4.8,4.8,0,0,1,.851-.108,1.661,1.661,0,0,1,1.269.553,1.9,1.9,0,0,1,.513,1.337V-3.24a4.3,4.3,0,0,1-.094.986,2.152,2.152,0,0,1-.175.526l2.214.243a2.064,2.064,0,0,1,.121.216.861.861,0,0,1,.068.378,1.332,1.332,0,0,1-.513.418,5.011,5.011,0,0,1-.783.338A2.221,2.221,0,0,1,79.515,0Zm9.369,0a4.214,4.214,0,0,1-1.445-.27A10.607,10.607,0,0,1,86.022-.9a8.377,8.377,0,0,1-1.161-.743,4.984,4.984,0,0,1-.648-.567,3.431,3.431,0,0,1-.58-1.5,11.645,11.645,0,0,1-.2-2.227q0-1.08.094-2.079t.257-1.836q.162-.837.324-1.4.378-.243,1.053-.621t1.512-.743a14.823,14.823,0,0,1,1.7-.621,5.788,5.788,0,0,1,1.647-.257,3.659,3.659,0,0,1,1.134.216,9.484,9.484,0,0,1,1.31.554,12.382,12.382,0,0,1,1.174.675,2.633,2.633,0,0,1,.7.608,2.519,2.519,0,0,1,.338,1.012,15.141,15.141,0,0,1,.175,1.525q.054.81.054,1.431a18.977,18.977,0,0,1-.216,2.889,19.8,19.8,0,0,1-.459,2.268,8.493,8.493,0,0,1-.891.689,12.032,12.032,0,0,1-1.3.769A8.875,8.875,0,0,1,90.5-.243,5.613,5.613,0,0,1,88.884,0Zm.351-1.917a3.735,3.735,0,0,0,.985-.175q.608-.175,1.147-.391a3.945,3.945,0,0,0,.729-.351,5.629,5.629,0,0,0,.284-1.391,16.534,16.534,0,0,0,.094-1.714q0-.891-.054-1.8t-.148-1.579a2.969,2.969,0,0,0-.2-.864,2.889,2.889,0,0,0-.621-.446A9.089,9.089,0,0,0,90.3-11.2a2.922,2.922,0,0,0-1.12-.27,4.657,4.657,0,0,0-.932.135q-.607.135-1.188.31a4.866,4.866,0,0,0-.878.337,7.44,7.44,0,0,0-.175.837q-.094.567-.148,1.188t-.054,1.188q0,.972.081,1.823t.189,1.431a2.4,2.4,0,0,0,.216.743q.108.108.446.378a5.82,5.82,0,0,0,.8.526q.459.257.918.459A2.011,2.011,0,0,0,89.235-1.917ZM101.6.108a2.9,2.9,0,0,1-1.2-.324,9.5,9.5,0,0,1-1.269-.715,3.57,3.57,0,0,1-.77-.635,2.835,2.835,0,0,1-.338-.959,7.393,7.393,0,0,1-.148-1.552q0-.324.027-.608t.054-.553a1.093,1.093,0,0,1,.311-.418,8.4,8.4,0,0,1,.688-.608,6.728,6.728,0,0,1,.823-.567,2.328,2.328,0,0,1,.715-.3,4.025,4.025,0,0,1,.675-.081q.459-.027,1.053-.054l.8-.054q.418-.027.85-.095t.851-.122q.418-.054.8-.135V-10.8a6.619,6.619,0,0,0-1.7-.58,8.685,8.685,0,0,0-1.755-.2q-.27,0-.526.014a2.489,2.489,0,0,0-.473.068l-.729,2.241a2.775,2.775,0,0,0-.338.122,2.7,2.7,0,0,1-.661.148,8.278,8.278,0,0,1-.594-.972,4.635,4.635,0,0,1-.486-1.431,5.477,5.477,0,0,1,1.215-.9,8.593,8.593,0,0,1,1.471-.648,12.136,12.136,0,0,1,1.539-.405A7.521,7.521,0,0,1,103.9-13.5a3.247,3.247,0,0,1,1.08.257,12.116,12.116,0,0,1,1.364.621,5.91,5.91,0,0,1,1.147.769,1.085,1.085,0,0,1,.459.729v9.342l1.971.243a.884.884,0,0,1,.135.23.923.923,0,0,1,.081.391,1.444,1.444,0,0,1-.553.446,5.305,5.305,0,0,1-.81.338,2.4,2.4,0,0,1-.715.135,2.352,2.352,0,0,1-.932-.2,2.723,2.723,0,0,1-.824-.54,2.63,2.63,0,0,1-.54-.716q-.621.324-1.445.689t-1.539.621A3.655,3.655,0,0,1,101.6.108Zm.783-1.944a4.09,4.09,0,0,0,.918-.148q.594-.149,1.229-.364a6.755,6.755,0,0,0,.985-.4v-3.4q-.621.135-1.323.229t-1.377.149q-.756.081-1.472.189a2.33,2.33,0,0,0-1.066.378q0,.513.013,1.2a3.247,3.247,0,0,0,.229,1.2,3.17,3.17,0,0,0,.8.635A2.052,2.052,0,0,0,102.384-1.836ZM117.585,0a4.036,4.036,0,0,1-1.4-.27,10.967,10.967,0,0,1-1.4-.635,7.759,7.759,0,0,1-1.134-.729,8.365,8.365,0,0,1-.648-.554,3.431,3.431,0,0,1-.58-1.5,11.8,11.8,0,0,1-.2-2.254q0-1.107.094-2.119t.243-1.836a12.733,12.733,0,0,1,.311-1.363q.4-.243,1.08-.621t1.526-.756a12.4,12.4,0,0,1,1.728-.621,6.318,6.318,0,0,1,1.688-.243,2.861,2.861,0,0,1,.959.2q.553.2,1.12.446V-18.9a1.017,1.017,0,0,0-.081-.4.509.509,0,0,0-.351-.27l-1.944-.621a1.354,1.354,0,0,1,.108-.418q.081-.175.135-.283a3.765,3.765,0,0,1,.8-.324,10.215,10.215,0,0,1,1.093-.27,5.072,5.072,0,0,1,.891-.108,1.674,1.674,0,0,1,1.255.553,1.869,1.869,0,0,1,.527,1.337V-1.782l1.971.243a.729.729,0,0,1,.121.243,1.118,1.118,0,0,1,.067.378A1.548,1.548,0,0,1,125-.459a3.956,3.956,0,0,1-.81.338,2.636,2.636,0,0,1-.715.121,2.318,2.318,0,0,1-.945-.2,2.6,2.6,0,0,1-.8-.54,2.763,2.763,0,0,1-.527-.716,10.956,10.956,0,0,1-1.093.689,7.594,7.594,0,0,1-1.242.554A3.956,3.956,0,0,1,117.585,0Zm.54-1.917a3.188,3.188,0,0,0,.743-.121q.472-.122,1.053-.324t1.039-.391v-7.857q-.459-.189-1-.391a10.384,10.384,0,0,0-1.066-.337,3.807,3.807,0,0,0-.932-.135,4.469,4.469,0,0,0-.918.135q-.594.135-1.174.31a4.013,4.013,0,0,0-.851.337,4.346,4.346,0,0,0-.2.824q-.094.554-.148,1.188t-.054,1.229q0,.945.081,1.8t.189,1.431a2.4,2.4,0,0,0,.216.743,2.561,2.561,0,0,0,.473.391q.364.257.823.526a6.867,6.867,0,0,0,.932.459A2.229,2.229,0,0,0,118.125-1.917ZM137.079.108a2.9,2.9,0,0,1-1.2-.324,9.5,9.5,0,0,1-1.269-.715,3.57,3.57,0,0,1-.77-.635,2.835,2.835,0,0,1-.337-.959,7.392,7.392,0,0,1-.149-1.552q0-.324.027-.608t.054-.553a1.093,1.093,0,0,1,.311-.418,8.4,8.4,0,0,1,.688-.608,6.728,6.728,0,0,1,.824-.567,2.328,2.328,0,0,1,.715-.3,4.025,4.025,0,0,1,.675-.081q.459-.027,1.053-.054l.8-.054q.419-.027.85-.095t.851-.122q.418-.054.8-.135V-10.8a6.62,6.62,0,0,0-1.7-.58,8.685,8.685,0,0,0-1.755-.2q-.27,0-.527.014a2.488,2.488,0,0,0-.473.068l-.729,2.241a2.775,2.775,0,0,0-.337.122,2.7,2.7,0,0,1-.661.148,8.277,8.277,0,0,1-.594-.972,4.635,4.635,0,0,1-.486-1.431,5.477,5.477,0,0,1,1.215-.9,8.593,8.593,0,0,1,1.472-.648,12.135,12.135,0,0,1,1.539-.405,7.522,7.522,0,0,1,1.418-.148,3.247,3.247,0,0,1,1.08.257,12.116,12.116,0,0,1,1.363.621,5.91,5.91,0,0,1,1.147.769,1.085,1.085,0,0,1,.459.729v9.342l1.971.243a.885.885,0,0,1,.135.23.923.923,0,0,1,.081.391,1.444,1.444,0,0,1-.554.446,5.305,5.305,0,0,1-.81.338,2.4,2.4,0,0,1-.715.135,2.352,2.352,0,0,1-.931-.2,2.723,2.723,0,0,1-.824-.54,2.63,2.63,0,0,1-.54-.716q-.621.324-1.444.689t-1.539.621A3.655,3.655,0,0,1,137.079.108Zm.783-1.944a4.09,4.09,0,0,0,.918-.148q.594-.149,1.229-.364a6.754,6.754,0,0,0,.986-.4v-3.4q-.621.135-1.323.229t-1.377.149q-.756.081-1.471.189a2.33,2.33,0,0,0-1.067.378q0,.513.014,1.2a3.247,3.247,0,0,0,.23,1.2,3.17,3.17,0,0,0,.8.635A2.052,2.052,0,0,0,137.862-1.836ZM152.6,0a3.551,3.551,0,0,1-.918-.189,11.591,11.591,0,0,1-1.269-.472,8.947,8.947,0,0,1-1.107-.567q-.459-.284-.459-.472V-12.042l-2.133-.162a2.242,2.242,0,0,1,.108-.756,1.17,1.17,0,0,1,.189-.378l1.4-.162a.618.618,0,0,0,.5-.284,1.679,1.679,0,0,0,.122-.742v-2.916a4.241,4.241,0,0,1,.783-.486,2.357,2.357,0,0,1,.864-.27l.513.324v4.347l3,.027.27.351a2.553,2.553,0,0,1-.148.729,3.647,3.647,0,0,1-.23.513l-2.835-.108V-2.16l3.159.594a1.691,1.691,0,0,1,.122.229,1.039,1.039,0,0,1,.067.419,1.755,1.755,0,0,1-.567.446,5.258,5.258,0,0,1-.77.338A2.1,2.1,0,0,1,152.6,0Zm11.34,5.4a3.248,3.248,0,0,1-1.066-.216,6.27,6.27,0,0,1-1.107-.513,2.522,2.522,0,0,1-.688-.54,2.143,2.143,0,0,1,.162-.716,1.992,1.992,0,0,1,.27-.473,8.71,8.71,0,0,0,2.5-.459,7.788,7.788,0,0,0,2.174-1.161A7.894,7.894,0,0,0,167.94-.54a10.634,10.634,0,0,1-1.634-.567,9.269,9.269,0,0,1-1.4-.756,6.237,6.237,0,0,1-.932-.729l-1.377-6.993a5.642,5.642,0,0,0-.311-1.066,1.28,1.28,0,0,0-.688-.716l-1.053-.486a1.412,1.412,0,0,1,.108-.554,3.255,3.255,0,0,1,.189-.391,5.289,5.289,0,0,1,.824-.3q.554-.162,1.134-.283a4.79,4.79,0,0,1,.932-.122,2.091,2.091,0,0,1,1.566.608,3.328,3.328,0,0,1,.783,1.877l1,7.452a4.2,4.2,0,0,0,.5.338,5.916,5.916,0,0,0,.756.378q.419.175.8.311a13.855,13.855,0,0,0,.621-1.4q.324-.837.621-1.782t.54-1.9q.243-.958.392-1.768a10.707,10.707,0,0,0,.175-1.35,4.611,4.611,0,0,0-.864-.486q-.54-.243-1.066-.445t-.85-.311a2.855,2.855,0,0,1,.121-.648,1.385,1.385,0,0,1,.2-.432,4.836,4.836,0,0,1,.932-.23q.581-.094,1.188-.148t.986-.054a1.623,1.623,0,0,1,.783.27,5.93,5.93,0,0,1,.9.662,5.86,5.86,0,0,1,.742.769,1.118,1.118,0,0,1,.3.594,10.449,10.449,0,0,1-.324,2.322,23.571,23.571,0,0,1-.918,2.943,32.072,32.072,0,0,1-1.4,3.159A26.616,26.616,0,0,1,170.451.31a20.145,20.145,0,0,1-2.038,2.619,9.733,9.733,0,0,1-2.2,1.809A4.467,4.467,0,0,1,163.944,5.4Zm18.6-5.4a4.9,4.9,0,0,1-1.5-.257,10.442,10.442,0,0,1-1.539-.634,11.058,11.058,0,0,1-1.269-.743,3.405,3.405,0,0,1-.715-.607,4.038,4.038,0,0,1-.594-1.634,13.076,13.076,0,0,1-.189-2.282q0-1.026.094-2t.257-1.782a11.208,11.208,0,0,1,.324-1.3q.378-.243,1.107-.634a16.478,16.478,0,0,1,1.634-.756,16.941,16.941,0,0,1,1.836-.621,6.5,6.5,0,0,1,1.714-.257,4.207,4.207,0,0,1,1.188.2,12.584,12.584,0,0,1,1.391.513,8.349,8.349,0,0,1,1.269.675,3.611,3.611,0,0,1,.8.661,3.561,3.561,0,0,1,.351,1.012,10.172,10.172,0,0,1,.189,1.377q.054.742.054,1.5a21.274,21.274,0,0,1-.2,2.957,12.114,12.114,0,0,1-.5,2.281,6.839,6.839,0,0,1-.945.689,13.591,13.591,0,0,1-1.417.769,10.675,10.675,0,0,1-1.647.621A6.12,6.12,0,0,1,182.547,0Zm.351-2.268a3.344,3.344,0,0,0,.648-.095q.432-.094.851-.23t.634-.216a3.62,3.62,0,0,0,.23-1.121q.067-.77.067-1.606,0-.864-.054-1.836T185.152-9.1a2.323,2.323,0,0,0-.176-.891,2.116,2.116,0,0,0-.473-.432,4.844,4.844,0,0,0-.823-.486,1.99,1.99,0,0,0-.837-.216,3.631,3.631,0,0,0-.715.094q-.445.094-.864.216a5.4,5.4,0,0,0-.661.23,3.266,3.266,0,0,0-.162.634,7.721,7.721,0,0,0-.108,1q-.027.554-.027,1.12,0,.918.054,1.85t.135,1.606a5.948,5.948,0,0,0,.135.837,3.947,3.947,0,0,0,.351.283q.27.2.621.432a5.484,5.484,0,0,0,.7.391A1.478,1.478,0,0,0,182.9-2.268ZM196.668.108A3.772,3.772,0,0,1,195.237-.2a7.5,7.5,0,0,1-1.4-.756,6.939,6.939,0,0,1-1.053-.864,1.156,1.156,0,0,1-.4-.661v-7.992a.85.85,0,0,0-.122-.446.651.651,0,0,0-.337-.283l-1.485-.54a3.672,3.672,0,0,1,.135-.594,1.236,1.236,0,0,1,.216-.405,10.1,10.1,0,0,1,1.391-.486,6.274,6.274,0,0,1,1.742-.27,2.013,2.013,0,0,1,1.525.608,2.12,2.12,0,0,1,.58,1.525v8.046q.216.162.527.418a4.056,4.056,0,0,0,.661.446,1.293,1.293,0,0,0,.567.189,3.154,3.154,0,0,0,.715-.122,8.33,8.33,0,0,0,1.012-.338,6.62,6.62,0,0,0,.945-.459v-7.29a.855.855,0,0,0-.108-.432.726.726,0,0,0-.351-.3l-1.7-.54a2.165,2.165,0,0,1,.135-.648.838.838,0,0,1,.216-.351,7.515,7.515,0,0,1,.878-.311q.581-.175,1.269-.31a6.461,6.461,0,0,1,1.229-.135,1.98,1.98,0,0,1,1.5.608,2.12,2.12,0,0,1,.58,1.525v9.261l1.7.162q.054.135.148.378a1.559,1.559,0,0,1,.094.567,1.6,1.6,0,0,1-.607.473,5.013,5.013,0,0,1-1,.378,4.021,4.021,0,0,1-1.04.148,2.585,2.585,0,0,1-1.566-.472,2.921,2.921,0,0,1-.945-1.093,14.4,14.4,0,0,1-1.309.715,15.062,15.062,0,0,1-1.593.675A4.1,4.1,0,0,1,196.668.108ZM212.679,0a9.309,9.309,0,0,1-1.026-.095q-.729-.095-1.62-.229t-1.647-.284a9.824,9.824,0,0,1-1.08-.257,1.335,1.335,0,0,1,.081-.445,1.762,1.762,0,0,1,.189-.391l.675-.135a.922.922,0,0,0,.472-.216,1.077,1.077,0,0,0,.257-.594,7.625,7.625,0,0,0,.081-1.3v-6.534a.911.911,0,0,0-.108-.459.6.6,0,0,0-.351-.27l-1.458-.54a2.093,2.093,0,0,1,.122-.594,1.447,1.447,0,0,1,.229-.405,10.1,10.1,0,0,1,1.391-.486,6.275,6.275,0,0,1,1.742-.27,1.959,1.959,0,0,1,1.5.621,2.432,2.432,0,0,1,.581,1.728v.3q.162-.189.472-.621t.7-.891a6.12,6.12,0,0,1,.81-.8,1.294,1.294,0,0,1,.8-.337,1.545,1.545,0,0,1,.81.27,4.371,4.371,0,0,1,.824.675,5.59,5.59,0,0,1,.635.769A1.169,1.169,0,0,1,218-11.2a3.193,3.193,0,0,1-.189.932q-.189.581-.432,1.134a3.2,3.2,0,0,1-.432.769,4.1,4.1,0,0,1-.851-.094q-.445-.095-.715-.175-.081-.27-.229-.675t-.3-.729q-.148-.324-.311-.324a.811.811,0,0,0-.392.175,5.218,5.218,0,0,0-.553.446q-.3.27-.54.513a2.275,2.275,0,0,0-.324.378v5.427a2.83,2.83,0,0,1-.148.972,2.157,2.157,0,0,1-.257.54l2.241.243a1.634,1.634,0,0,1,.135.3,1.376,1.376,0,0,1,.081.486,1.592,1.592,0,0,1-.567.418,5.868,5.868,0,0,1-.824.338A2.4,2.4,0,0,1,212.679,0Zm17.766,0a4.9,4.9,0,0,1-1.5-.257,10.442,10.442,0,0,1-1.539-.634,11.058,11.058,0,0,1-1.269-.743,3.405,3.405,0,0,1-.715-.607,4.038,4.038,0,0,1-.594-1.634,13.076,13.076,0,0,1-.189-2.282q0-1.026.094-2t.257-1.782a11.208,11.208,0,0,1,.324-1.3q.378-.243,1.107-.634a16.478,16.478,0,0,1,1.634-.756,16.941,16.941,0,0,1,1.836-.621,6.5,6.5,0,0,1,1.714-.257,4.207,4.207,0,0,1,1.188.2,12.584,12.584,0,0,1,1.391.513,8.349,8.349,0,0,1,1.269.675,3.611,3.611,0,0,1,.8.661,3.561,3.561,0,0,1,.351,1.012,10.172,10.172,0,0,1,.189,1.377q.054.742.054,1.5a21.274,21.274,0,0,1-.2,2.957,12.114,12.114,0,0,1-.5,2.281,6.839,6.839,0,0,1-.945.689,13.591,13.591,0,0,1-1.417.769,10.675,10.675,0,0,1-1.647.621A6.12,6.12,0,0,1,230.445,0Zm.351-2.268a3.344,3.344,0,0,0,.648-.095q.432-.094.851-.23t.634-.216a3.62,3.62,0,0,0,.23-1.121q.067-.77.067-1.606,0-.864-.054-1.836T233.051-9.1a2.323,2.323,0,0,0-.176-.891,2.116,2.116,0,0,0-.473-.432,4.844,4.844,0,0,0-.823-.486,1.99,1.99,0,0,0-.837-.216,3.631,3.631,0,0,0-.715.094q-.445.094-.864.216a5.4,5.4,0,0,0-.661.23,3.266,3.266,0,0,0-.162.634,7.721,7.721,0,0,0-.108,1q-.027.554-.027,1.12,0,.918.054,1.85t.135,1.606a5.948,5.948,0,0,0,.135.837,3.947,3.947,0,0,0,.351.283q.27.2.621.432a5.484,5.484,0,0,0,.7.391A1.478,1.478,0,0,0,230.8-2.268ZM246.375,0a5.625,5.625,0,0,1-1.525-.216,8.56,8.56,0,0,1-1.458-.554,10.025,10.025,0,0,1-1.242-.715,6.34,6.34,0,0,1-.9-.729l-1.377-7.371a7.151,7.151,0,0,0-.311-1.013,1.366,1.366,0,0,0-.715-.769l-1.053-.486a1.412,1.412,0,0,1,.108-.554,3.255,3.255,0,0,1,.189-.391,5.289,5.289,0,0,1,.824-.3q.554-.162,1.134-.283a4.79,4.79,0,0,1,.932-.122,2.128,2.128,0,0,1,1.553.594,3.235,3.235,0,0,1,.8,1.89l1.026,7.533a4.724,4.724,0,0,0,.7.607,2.813,2.813,0,0,0,1.026.472,9.838,9.838,0,0,0,.878-1.336,17.878,17.878,0,0,0,.837-1.714,15.836,15.836,0,0,0,.661-1.863l-.4-2.268a6.8,6.8,0,0,0-.311-1.04,1.266,1.266,0,0,0-.715-.743l-1.053-.486a1.315,1.315,0,0,1,.108-.54q.108-.243.189-.405a7.191,7.191,0,0,1,.824-.3q.526-.162,1.107-.283a4.86,4.86,0,0,1,.958-.122,2.175,2.175,0,0,1,1.566.594,3.069,3.069,0,0,1,.783,1.89l.972,7.587q.27.243.7.567a3.011,3.011,0,0,0,1.026.486A8.369,8.369,0,0,0,255.177-4,16.734,16.734,0,0,0,256-6.129q.365-1.161.608-2.322a12.277,12.277,0,0,0,.27-2.187,3.75,3.75,0,0,0-.621-.378q-.378-.189-.81-.392t-.81-.351q-.378-.148-.594-.229a2.711,2.711,0,0,1,.122-.661,1.39,1.39,0,0,1,.2-.418,5.573,5.573,0,0,1,.958-.23q.581-.094,1.174-.148t1-.054a1.711,1.711,0,0,1,.81.257,5.68,5.68,0,0,1,.891.621,5.568,5.568,0,0,1,.729.729,1.089,1.089,0,0,1,.3.526,9.281,9.281,0,0,1-.27,2.039,20.257,20.257,0,0,1-.742,2.457q-.473,1.283-1.053,2.5a19.567,19.567,0,0,1-1.228,2.214,8.862,8.862,0,0,1-1.255,1.579A1.732,1.732,0,0,1,254.529,0a4.767,4.767,0,0,1-1.377-.2,7.626,7.626,0,0,1-1.283-.513,7.53,7.53,0,0,1-1.094-.675,7.6,7.6,0,0,1-.81-.689l-.459-1.7a18.619,18.619,0,0,1-1.08,1.89,8.25,8.25,0,0,1-1.093,1.377A1.47,1.47,0,0,1,246.375,0Zm20.25,0a7.684,7.684,0,0,1-.931-.095q-.662-.095-1.458-.229t-1.471-.284q-.675-.149-1-.257a1.335,1.335,0,0,1,.081-.445,3.462,3.462,0,0,1,.162-.391l.7-.135a.8.8,0,0,0,.634-.472,4.8,4.8,0,0,0,.176-1.633v-6.534a.855.855,0,0,0-.108-.432.722.722,0,0,0-.378-.3l-1.458-.54a2.091,2.091,0,0,1,.121-.594,1.447,1.447,0,0,1,.229-.405,10.1,10.1,0,0,1,1.391-.486,6.275,6.275,0,0,1,1.742-.27,2.124,2.124,0,0,1,1.458.5,1.891,1.891,0,0,1,.621,1.363q.486-.351,1.134-.783a12.076,12.076,0,0,1,1.3-.756,2.577,2.577,0,0,1,1.107-.324,5.191,5.191,0,0,1,1.417.229,7.419,7.419,0,0,1,1.512.621,4.906,4.906,0,0,1,1.174.864,1.388,1.388,0,0,1,.459.959v7.4a2.963,2.963,0,0,1-.135.959,2.624,2.624,0,0,1-.243.553l1.971.243a2.316,2.316,0,0,1,.122.324,1.53,1.53,0,0,1,.068.459,1.626,1.626,0,0,1-.513.405,4.345,4.345,0,0,1-.783.351,2.333,2.333,0,0,1-.729.135,8.334,8.334,0,0,1-.958-.095q-.688-.095-1.525-.229t-1.539-.284a10.345,10.345,0,0,1-1.026-.257,1.23,1.23,0,0,1,.094-.473,2.81,2.81,0,0,1,.176-.364l.594-.081A.9.9,0,0,0,271.255-2a1.1,1.1,0,0,0,.257-.607,8.107,8.107,0,0,0,.081-1.336V-9.531A.818.818,0,0,0,271.4-10a2.213,2.213,0,0,0-.486-.472,3.694,3.694,0,0,0-.58-.351,1.133,1.133,0,0,0-.446-.135,2.584,2.584,0,0,0-.567.094q-.378.095-.8.23t-.8.283q-.378.148-.567.229v6.48A3.188,3.188,0,0,1,267-2.605a2.6,2.6,0,0,1-.324.688l1.863.243a1.285,1.285,0,0,1,.121.3,1.626,1.626,0,0,1,.068.486,1.607,1.607,0,0,1-.527.405,4.32,4.32,0,0,1-.837.351A2.66,2.66,0,0,1,266.625,0Zm22.383,0a9.308,9.308,0,0,1-1.026-.095q-.729-.095-1.62-.229t-1.647-.284a9.824,9.824,0,0,1-1.08-.257,1.335,1.335,0,0,1,.081-.445A1.762,1.762,0,0,1,283.9-1.7l.675-.135a.922.922,0,0,0,.473-.216,1.077,1.077,0,0,0,.257-.594,7.627,7.627,0,0,0,.081-1.3v-6.534a.912.912,0,0,0-.108-.459.6.6,0,0,0-.351-.27l-1.458-.54a2.091,2.091,0,0,1,.121-.594,1.447,1.447,0,0,1,.229-.405,10.1,10.1,0,0,1,1.391-.486,6.275,6.275,0,0,1,1.742-.27,1.959,1.959,0,0,1,1.5.621,2.432,2.432,0,0,1,.581,1.728v.3q.162-.189.473-.621t.7-.891a6.122,6.122,0,0,1,.81-.8,1.294,1.294,0,0,1,.8-.337,1.545,1.545,0,0,1,.81.27,4.372,4.372,0,0,1,.824.675,5.592,5.592,0,0,1,.634.769,1.169,1.169,0,0,1,.243.581,3.192,3.192,0,0,1-.189.932q-.189.581-.432,1.134a3.2,3.2,0,0,1-.432.769,4.1,4.1,0,0,1-.85-.094q-.445-.095-.716-.175-.081-.27-.229-.675t-.3-.729q-.148-.324-.311-.324a.811.811,0,0,0-.391.175,5.22,5.22,0,0,0-.553.446q-.3.27-.54.513a2.273,2.273,0,0,0-.324.378v5.427a2.83,2.83,0,0,1-.148.972,2.158,2.158,0,0,1-.257.54l2.241.243a1.632,1.632,0,0,1,.135.3,1.376,1.376,0,0,1,.081.486,1.592,1.592,0,0,1-.567.418,5.868,5.868,0,0,1-.823.338A2.4,2.4,0,0,1,289.008,0Zm11.34,0a8.672,8.672,0,0,1-.972-.095q-.7-.095-1.552-.229t-1.579-.284a10.044,10.044,0,0,1-1.053-.257,1.335,1.335,0,0,1,.081-.445,1.762,1.762,0,0,1,.189-.391l.675-.135a.993.993,0,0,0,.473-.2,1.017,1.017,0,0,0,.257-.594,7.884,7.884,0,0,0,.081-1.309v-6.534a.912.912,0,0,0-.108-.459.6.6,0,0,0-.351-.27l-1.458-.54a2.356,2.356,0,0,1,.121-.567,1.387,1.387,0,0,1,.229-.432,11.987,11.987,0,0,1,1.4-.486,6.136,6.136,0,0,1,1.728-.27,2.013,2.013,0,0,1,1.525.608,2.12,2.12,0,0,1,.581,1.525v7.938a2.83,2.83,0,0,1-.148.972,2.158,2.158,0,0,1-.257.54l1.971.243a2.5,2.5,0,0,1,.121.311,1.5,1.5,0,0,1,.068.473,1.626,1.626,0,0,1-.513.405,4.344,4.344,0,0,1-.783.351A2.333,2.333,0,0,1,300.348,0ZM298.3-15.849a.973.973,0,0,1-.553-.284,5.464,5.464,0,0,1-.675-.688,5.181,5.181,0,0,1-.567-.823,1.514,1.514,0,0,1-.229-.661.914.914,0,0,1,.3-.567,3.873,3.873,0,0,1,.756-.621,7.536,7.536,0,0,1,.891-.5,1.765,1.765,0,0,1,.7-.2.93.93,0,0,1,.567.284,4.011,4.011,0,0,1,.621.7,6.985,6.985,0,0,1,.513.837,1.6,1.6,0,0,1,.216.688.921.921,0,0,1-.284.54,4.01,4.01,0,0,1-.7.621,5.022,5.022,0,0,1-.837.486A1.8,1.8,0,0,1,298.3-15.849ZM308.61,0a5.343,5.343,0,0,1-1.471-.23,10.522,10.522,0,0,1-1.5-.553,10.524,10.524,0,0,1-1.174-.621q-.473-.3-.526-.459a6,6,0,0,1,.31-1.674,8.028,8.028,0,0,1,.553-1.35,5.282,5.282,0,0,1,.918.122,1.491,1.491,0,0,1,.54.2q.189.4.459,1.067a10.729,10.729,0,0,0,.54,1.148q.3.054.783.108a7.429,7.429,0,0,0,.783.054q.486,0,1.08-.054a3.121,3.121,0,0,0,1.053-.27,2.762,2.762,0,0,0,.148-.567,4.291,4.291,0,0,0,.068-.756q0-.216-.013-.445a2.015,2.015,0,0,0-.04-.338,2.249,2.249,0,0,0-.77-.324q-.689-.216-1.674-.486t-1.984-.58q-1-.311-1.715-.594a1.946,1.946,0,0,1-.85-.5,5.381,5.381,0,0,1-.081-.688q-.027-.419-.027-.8a10.663,10.663,0,0,1,.148-1.755,5.944,5.944,0,0,1,.392-1.431,5.163,5.163,0,0,1,.972-.5q.675-.284,1.5-.567a16.169,16.169,0,0,1,1.647-.472,6.751,6.751,0,0,1,1.5-.189,3.592,3.592,0,0,1,1.147.243,14.812,14.812,0,0,1,1.377.567,7.665,7.665,0,0,1,1.147.648q.459.324.459.459a3.584,3.584,0,0,1-.162.851,11.739,11.739,0,0,1-.392,1.161,4.964,4.964,0,0,1-.445.9,4.457,4.457,0,0,1-.958-.135,4.9,4.9,0,0,1-.581-.189q-.4-.891-.742-1.539t-.553-.648q-.513,0-1.039.041t-.972.108q-.445.068-.8.149a3.437,3.437,0,0,0-.108.608q-.027.31-.027.553a4.56,4.56,0,0,0,.027.527,2.372,2.372,0,0,0,.108.472,2.578,2.578,0,0,0,.716.257q.635.175,1.566.4t1.876.5a14.314,14.314,0,0,1,1.7.594,3.13,3.13,0,0,1,1.053.648,2.681,2.681,0,0,1,.148.742q.041.473.04.9a10.4,10.4,0,0,1-.162,1.809,3.612,3.612,0,0,1-.378,1.242,5.066,5.066,0,0,1-.972.526,12.889,12.889,0,0,1-1.458.527,16.911,16.911,0,0,1-1.647.4A8.146,8.146,0,0,1,308.61,0Zm12.663,0a7.068,7.068,0,0,1-.9-.095q-.635-.095-1.391-.229T317.56-.608q-.662-.149-.986-.257a1.268,1.268,0,0,1,.095-.459,2.577,2.577,0,0,1,.175-.378l.594-.108a.67.67,0,0,0,.594-.553,6.637,6.637,0,0,0,.135-1.579V-18.576a1.04,1.04,0,0,0-.095-.445.547.547,0,0,0-.365-.283l-1.863-.54a2.224,2.224,0,0,1,.176-.634,2.3,2.3,0,0,1,.2-.365,6.988,6.988,0,0,1,.918-.311q.621-.175,1.323-.31a6.78,6.78,0,0,1,1.269-.135,1.98,1.98,0,0,1,1.5.608,2.12,2.12,0,0,1,.581,1.525v7.749q.567-.378,1.269-.8a11.067,11.067,0,0,1,1.377-.7,3.053,3.053,0,0,1,1.134-.284,4.324,4.324,0,0,1,1.336.257,9.051,9.051,0,0,1,1.485.648,5.445,5.445,0,0,1,1.188.851,1.308,1.308,0,0,1,.473.918,1.83,1.83,0,0,1-.5,1.12,9.5,9.5,0,0,1-1.161,1.174q-.662.567-1.255.986t-.783.581a1.3,1.3,0,0,1,.4.27,3.033,3.033,0,0,1,.54.729l1.539,2.7a2.179,2.179,0,0,0,.634.742,1.4,1.4,0,0,0,.824.257h.729a1.017,1.017,0,0,1,.175.3,1.273,1.273,0,0,1,.095.513,2.136,2.136,0,0,1-.608.675,3.885,3.885,0,0,1-1,.567A2.867,2.867,0,0,1,328.671,0,2.692,2.692,0,0,1,327.2-.459a3.531,3.531,0,0,1-1.2-1.4l-1.7-3.348a3.247,3.247,0,0,0-.581-.7,2.907,2.907,0,0,0-.513-.365,2.2,2.2,0,0,0-.419-.175,1.694,1.694,0,0,1,.148-.689,2.17,2.17,0,0,1,.284-.5l1.431-.162.432-.432q.27-.27.553-.58a7.136,7.136,0,0,0,.473-.567.8.8,0,0,0,.189-.365.7.7,0,0,0-.176-.337,3.015,3.015,0,0,0-.445-.459,4.072,4.072,0,0,0-.54-.392.941.941,0,0,0-.459-.162,4.364,4.364,0,0,0-1.242.283,11.669,11.669,0,0,0-1.62.689v6.48a3.188,3.188,0,0,1-.162,1.04,2.6,2.6,0,0,1-.324.688l2.079.243a2.2,2.2,0,0,1,.122.337,1.576,1.576,0,0,1,.067.446,1.937,1.937,0,0,1-.607.405,5.672,5.672,0,0,1-.918.351A2.994,2.994,0,0,1,321.273,0Z" transform="translate(639 511)" fill="#fff"/></g></svg>