<svg xmlns="http://www.w3.org/2000/svg" xmlns:xlink="http://www.w3.org/1999/xlink" width="902" height="121" viewBox="0 0 902 121"><defs><filter id="a" x="24.648" y="42.8" width="237.186" height="72" filterUnits="userSpaceOnUse"><feOffset dy="3" input="SourceAlpha"/><feGaussianBlur stdDeviation="3" result="b"/><feFlood flood-opacity="0.161"/><feComposite operator="in" in2="b"/><feComposite in="SourceGraphic"/></filter><filter id="c" x="728" y="54" width="97" height="52.001" filterUnits="userSpaceOnUse"><feOffset dy="3" input="SourceAlpha"/><feGaussianBlur stdDeviation="3" result="d"/><feFlood flood-opacity="0.161"/><feComposite operator="in" in2="d"/><feComposite in="SourceGraphic"/></filter><filter id="e" x="811" y="54" width="66.001" height="52" filterUnits="userSpaceOnUse"><feOffset dy="3" input="SourceAlpha"/><feGaussianBlur stdDeviation="3" result="f"/><feFlood flood-opacity="0.161"/><feComposite operator="in" in2="f"/><feComposite in="SourceGraphic"/></filter></defs><g transform="translate(-506 -283)"><rect width="902" height="121" transform="translate(506 283)" fill="#ed225d"/><g transform="matrix(1, 0, 0, 1, 506, 283)" filter="url(#a)"><path d="M9.99,10.8a14.09,14.09,0,0,1-1.62-.189q-1.242-.189-2.781-.486T2.7,9.5q-1.35-.324-2-.54a1.625,1.625,0,0,1,.189-.783,4.585,4.585,0,0,1,.351-.567L2.7,7.4a2.24,2.24,0,0,0,1.431-.945A6.524,6.524,0,0,0,4.7,3.078V-21.438a1.8,1.8,0,0,0-.162-.81,1.026,1.026,0,0,0-.594-.486L.648-23.976a3.011,3.011,0,0,1,.243-1,2.074,2.074,0,0,1,.351-.567,14.194,14.194,0,0,1,2.268-.972A7.273,7.273,0,0,1,5.724-27a3.522,3.522,0,0,1,2.511,1A3.7,3.7,0,0,1,9.4-23.49q.972-.648,1.944-1.269t1.944-1.134A11.506,11.506,0,0,1,15.2-26.7,6.03,6.03,0,0,1,17.01-27a6.863,6.863,0,0,1,2.133.432,18.39,18.39,0,0,1,2.565,1.107,22.624,22.624,0,0,1,2.322,1.377,6.5,6.5,0,0,1,1.4,1.188,4.468,4.468,0,0,1,.648,2.025q.216,1.485.3,3.159T26.46-14.9a36.542,36.542,0,0,1-.405,5.481q-.4,2.673-.837,4.4a16.879,16.879,0,0,1-1.7,1.431,25.879,25.879,0,0,1-2.538,1.674A16.12,16.12,0,0,1,17.928-.54a10.193,10.193,0,0,1-3.24.54,6.51,6.51,0,0,1-2.565-.594A21.112,21.112,0,0,1,9.5-1.944v6.1A8.666,8.666,0,0,1,9.315,6.1a3.73,3.73,0,0,1-.4,1.134l4.752.432a1.442,1.442,0,0,1,.243.459,2.166,2.166,0,0,1,.135.783,2.833,2.833,0,0,1-1.053.864,10.88,10.88,0,0,1-1.62.729A4.318,4.318,0,0,1,9.99,10.8ZM15.282-3.942a7.76,7.76,0,0,0,2-.351q1.242-.351,2.349-.783a13.278,13.278,0,0,0,1.485-.648A11.638,11.638,0,0,0,21.6-8.37q.162-1.728.162-3.294,0-1.89-.135-3.726T21.3-18.549a4.323,4.323,0,0,0-.405-1.593,3.7,3.7,0,0,0-1.188-.972,14.867,14.867,0,0,0-2.268-1.161,5.807,5.807,0,0,0-2.16-.513,5.139,5.139,0,0,0-1.4.324q-.972.324-2.16.783T9.5-20.844V-5.832q.81.432,1.917.891a15.577,15.577,0,0,0,2.187.729A7.444,7.444,0,0,0,15.282-3.942ZM36.234,5.67a6.406,6.406,0,0,1-2.052-.513,17.647,17.647,0,0,1-2.565-1.215A6.074,6.074,0,0,1,29.97,2.7a2.746,2.746,0,0,1,.459-1.08,2.453,2.453,0,0,1,.459-.486q1.35.216,2.754.351T36.4,1.62A26.181,26.181,0,0,0,39.852,1.4,16.686,16.686,0,0,0,42.93.7a2.907,2.907,0,0,0,.621-1.053A16.141,16.141,0,0,0,44.226-2.4a24.458,24.458,0,0,0,.54-2.646,18.973,18.973,0,0,0,.216-2.835,2.26,2.26,0,0,0-.891-1.62A11.793,11.793,0,0,0,41.742-11.1q-1.458-.783-3.1-1.512T35.37-13.986q-1.188-.486-2.16-.918t-1.566-.756q-.594-.324-.648-.54a25.458,25.458,0,0,1,.405-4.482,30.119,30.119,0,0,1,1.107-4.347,29.145,29.145,0,0,1,1.512-3.7,20.006,20.006,0,0,1,2.943-.459q1.917-.189,4.158-.405t4.32-.486a29.465,29.465,0,0,0,3.537-.648L50-30.24a6.453,6.453,0,0,1-.3,1.89,12.6,12.6,0,0,1-.7,1.809,10.113,10.113,0,0,1-.783,1.377,46.422,46.422,0,0,0-5.319-.513q-3-.135-5.643-.135a11.593,11.593,0,0,0-.837,2.4,25.752,25.752,0,0,0-.54,2.943q-.189,1.512-.243,2.754l2.862.864a56.392,56.392,0,0,1,6.669,2.457,9.668,9.668,0,0,1,3.645,2.619A5.629,5.629,0,0,1,49.95-8.208a16.025,16.025,0,0,1-.675,4.7A17.417,17.417,0,0,1,47.655.3a11.048,11.048,0,0,1-1.809,2.4A10.759,10.759,0,0,1,43.5,4.023a22.479,22.479,0,0,1-3.429,1.161A15.335,15.335,0,0,1,36.234,5.67Zm18.09-20.25a6.374,6.374,0,0,1,.189-1.728,2.784,2.784,0,0,1,.4-.918q2.43,0,5.076-.135t4.914-.3q2.268-.162,3.348-.324l.756.918a7,7,0,0,1-.135,1.377,4.46,4.46,0,0,1-.351,1.107ZM82.836,0a7.393,7.393,0,0,1-1.863-.378,22.389,22.389,0,0,1-2.619-.972,19.7,19.7,0,0,1-2.322-1.188q-.972-.594-.972-.972V-24.084l-4-.324a5.136,5.136,0,0,1,.189-1.485,3,3,0,0,1,.351-.837L74.2-27a1.175,1.175,0,0,0,1.08-.7,4.682,4.682,0,0,0,.216-1.566V-34.83a9.5,9.5,0,0,1,1.566-1,3.728,3.728,0,0,1,1.674-.513l1.08.594V-27H85.86l.54.7a5.435,5.435,0,0,1-.3,1.485,9.955,9.955,0,0,1-.4,1l-5.832-.216V-4.266l6.318,1.134a1.769,1.769,0,0,1,.27.459,1.847,1.847,0,0,1,.162.783,3.9,3.9,0,0,1-1.107.918,8.984,8.984,0,0,1-1.458.7A3.649,3.649,0,0,1,82.836,0ZM100.98,0a8.074,8.074,0,0,1-2.889-.567,17.929,17.929,0,0,1-2.835-1.377A17.025,17.025,0,0,1,93.015-3.51a11.144,11.144,0,0,1-1.161-1.08,7.319,7.319,0,0,1-.972-2.673,20.609,20.609,0,0,1-.432-4.4q0-2.16.189-4.131t.459-3.591a25.41,25.41,0,0,1,.594-2.754q.756-.486,2.052-1.3t2.889-1.62a23.434,23.434,0,0,1,3.321-1.377A10.715,10.715,0,0,1,103.3-27a6.863,6.863,0,0,1,2.133.432,17.234,17.234,0,0,1,2.538,1.107,24.158,24.158,0,0,1,2.3,1.377,6.5,6.5,0,0,1,1.4,1.188,5.121,5.121,0,0,1,.594,2.025q.216,1.485.324,3.159T112.7-14.9a36.542,36.542,0,0,1-.4,5.481,37.417,37.417,0,0,1-.891,4.4,18.253,18.253,0,0,1-1.674,1.431,23.358,23.358,0,0,1-2.511,1.674A16.4,16.4,0,0,1,104.193-.54,9.95,9.95,0,0,1,100.98,0Zm.594-3.942a7.573,7.573,0,0,0,2.025-.351q1.215-.351,2.295-.783a9.3,9.3,0,0,0,1.4-.648,11.554,11.554,0,0,0,.486-2.619q.162-1.7.162-3.321,0-1.836-.135-3.7t-.324-3.186a4.323,4.323,0,0,0-.4-1.593,4.784,4.784,0,0,0-1.161-.945,14.367,14.367,0,0,0-2.214-1.215,5.468,5.468,0,0,0-2.187-.54,9.341,9.341,0,0,0-1.7.243q-1.161.243-2.322.567a10.28,10.28,0,0,0-1.7.594,15.189,15.189,0,0,0-.324,1.728q-.162,1.134-.27,2.43T95.094-14.9q0,1.89.162,3.537a25.447,25.447,0,0,0,.4,2.781,6.066,6.066,0,0,0,.4,1.4,5.633,5.633,0,0,0,.783.729,18.568,18.568,0,0,0,1.512,1.107,13.521,13.521,0,0,0,1.755,1A3.588,3.588,0,0,0,101.574-3.942Zm27,3.942a8.074,8.074,0,0,1-2.889-.567,17.929,17.929,0,0,1-2.835-1.377,17.025,17.025,0,0,1-2.241-1.566,11.144,11.144,0,0,1-1.161-1.08,7.319,7.319,0,0,1-.972-2.673,20.609,20.609,0,0,1-.432-4.4q0-2.16.189-4.131t.459-3.591a25.41,25.41,0,0,1,.594-2.754q.756-.486,2.052-1.3t2.889-1.62a23.435,23.435,0,0,1,3.321-1.377A10.715,10.715,0,0,1,130.9-27a6.863,6.863,0,0,1,2.133.432,17.233,17.233,0,0,1,2.538,1.107,24.16,24.16,0,0,1,2.295,1.377,6.5,6.5,0,0,1,1.4,1.188,5.121,5.121,0,0,1,.594,2.025q.216,1.485.324,3.159t.108,2.808a36.541,36.541,0,0,1-.4,5.481,37.42,37.42,0,0,1-.891,4.4,18.251,18.251,0,0,1-1.674,1.431,23.359,23.359,0,0,1-2.511,1.674A16.4,16.4,0,0,1,131.787-.54,9.95,9.95,0,0,1,128.574,0Zm.594-3.942a7.574,7.574,0,0,0,2.025-.351q1.215-.351,2.295-.783a9.3,9.3,0,0,0,1.4-.648,11.554,11.554,0,0,0,.486-2.619q.162-1.7.162-3.321,0-1.836-.135-3.7t-.324-3.186a4.323,4.323,0,0,0-.4-1.593,4.784,4.784,0,0,0-1.161-.945A14.367,14.367,0,0,0,131.3-22.3a5.468,5.468,0,0,0-2.187-.54,9.341,9.341,0,0,0-1.7.243q-1.161.243-2.322.567a10.281,10.281,0,0,0-1.7.594,15.189,15.189,0,0,0-.324,1.728q-.162,1.134-.27,2.43t-.108,2.376q0,1.89.162,3.537a25.447,25.447,0,0,0,.4,2.781,6.066,6.066,0,0,0,.4,1.4,5.633,5.633,0,0,0,.783.729,18.568,18.568,0,0,0,1.512,1.107,13.52,13.52,0,0,0,1.755,1A3.588,3.588,0,0,0,129.168-3.942ZM153.792,0a13.772,13.772,0,0,1-1.674-.189q-1.242-.189-2.754-.486T146.5-1.3q-1.35-.324-2-.54a1.625,1.625,0,0,1,.189-.783,4.584,4.584,0,0,1,.351-.567L146.5-3.4a2.24,2.24,0,0,0,1.431-.945,6.524,6.524,0,0,0,.567-3.375V-37.584a1.984,1.984,0,0,0-.162-.837,1.015,1.015,0,0,0-.648-.513l-4.266-1.4a3.039,3.039,0,0,1,.216-.864,3.657,3.657,0,0,1,.27-.54,10.044,10.044,0,0,1,1.7-.675,19.448,19.448,0,0,1,2.241-.567,9.981,9.981,0,0,1,1.674-.216,3.529,3.529,0,0,1,2.592,1.161,3.839,3.839,0,0,1,1.134,2.781V-6.642a8.667,8.667,0,0,1-.189,1.944,5.754,5.754,0,0,1-.351,1.134l4.7.486a1.441,1.441,0,0,1,.243.432,1.955,1.955,0,0,1,.135.756,2.859,2.859,0,0,1-1.026.864,9.827,9.827,0,0,1-1.593.729A4.318,4.318,0,0,1,153.792,0Zm15.336,0a14.09,14.09,0,0,1-1.62-.189q-1.242-.189-2.754-.486T161.892-1.3q-1.35-.324-2-.54a1.625,1.625,0,0,1,.189-.783,2.255,2.255,0,0,1,.351-.513l1.458-.27a2.143,2.143,0,0,0,1.4-.945,6.806,6.806,0,0,0,.54-3.375V-37.638a2.166,2.166,0,0,0-.135-.783.918.918,0,0,0-.621-.513l-4.05-1.4a3.038,3.038,0,0,1,.216-.864,3.657,3.657,0,0,1,.27-.54,10.486,10.486,0,0,1,1.647-.675,18.261,18.261,0,0,1,2.106-.567,8.762,8.762,0,0,1,1.647-.216,3.529,3.529,0,0,1,2.592,1.161,3.839,3.839,0,0,1,1.134,2.781V-23.22q1.458-.81,3.1-1.7a30.172,30.172,0,0,1,3.132-1.485A6.82,6.82,0,0,1,177.228-27a5.046,5.046,0,0,1,2,.54,13.762,13.762,0,0,1,2.349,1.377,10.961,10.961,0,0,1,1.944,1.755,2.7,2.7,0,0,1,.783,1.674,3.726,3.726,0,0,1-1,2.214,20.118,20.118,0,0,1-2.376,2.457q-1.377,1.215-2.592,2.106t-1.593,1.215a5.534,5.534,0,0,1,.621.594,21.247,21.247,0,0,1,1.377,1.782l3.51,4.806a15.931,15.931,0,0,0,1.485,1.7,3.029,3.029,0,0,0,2.241.837h1.4a1.456,1.456,0,0,1,.351.378,1.1,1.1,0,0,1,.189.648,4.306,4.306,0,0,1-1.242,1.431,8.722,8.722,0,0,1-1.755,1.08A3.677,3.677,0,0,1,183.546,0a4.448,4.448,0,0,1-2.268-.756,8.611,8.611,0,0,1-2.43-2.43l-4.482-6.48a19.558,19.558,0,0,0-1.755-2.484,8.847,8.847,0,0,0-1.026-1.026q-.351-.27-.567-.432a1.253,1.253,0,0,1,.27-.783,5.908,5.908,0,0,1,.486-.567l2.862-.324a6.8,6.8,0,0,1,.918-.837q.7-.567,1.458-1.3a18.484,18.484,0,0,0,1.323-1.4,1.945,1.945,0,0,0,.567-1.107,1.566,1.566,0,0,0-.378-.837,7.853,7.853,0,0,0-.918-1.026,8.28,8.28,0,0,0-1.107-.891,1.817,1.817,0,0,0-.891-.378,10.616,10.616,0,0,0-3.078.7q-2.052.7-3.888,1.4v14.31a8.667,8.667,0,0,1-.189,1.944,5.754,5.754,0,0,1-.351,1.134l4.7.486a1.441,1.441,0,0,1,.243.432,1.955,1.955,0,0,1,.135.756,2.833,2.833,0,0,1-1.053.864,10.88,10.88,0,0,1-1.62.729A4.318,4.318,0,0,1,169.128,0ZM199.1,0a14.764,14.764,0,0,1-1.647-.189q-1.269-.189-2.781-.486T191.808-1.3q-1.35-.324-2-.54A1.625,1.625,0,0,1,190-2.619a4.584,4.584,0,0,1,.351-.567l1.458-.216a2.228,2.228,0,0,0,1.026-.459,2.508,2.508,0,0,0,.7-1.242,9.6,9.6,0,0,0,.27-2.619V-21.438a1.8,1.8,0,0,0-.162-.81,1.026,1.026,0,0,0-.594-.486l-3.294-1.188A3.131,3.131,0,0,1,190-24.975a2.074,2.074,0,0,1,.351-.567,14.194,14.194,0,0,1,2.268-.972A7.273,7.273,0,0,1,194.832-27a3.529,3.529,0,0,1,2.592,1.161,3.839,3.839,0,0,1,1.134,2.781V-6.642a8.667,8.667,0,0,1-.189,1.944,5.754,5.754,0,0,1-.351,1.134l4.7.432a3,3,0,0,1,.243.486,1.955,1.955,0,0,1,.135.756,2.859,2.859,0,0,1-1.026.864,9.827,9.827,0,0,1-1.593.729A4.318,4.318,0,0,1,199.1,0Zm-4.212-32.562a1.7,1.7,0,0,1-.891-.432,6.427,6.427,0,0,1-1.107-1.107,8.305,8.305,0,0,1-.891-1.35,2.562,2.562,0,0,1-.351-1.107,1.453,1.453,0,0,1,.486-.945,7.547,7.547,0,0,1,1.188-1,8.779,8.779,0,0,1,1.431-.81,3.053,3.053,0,0,1,1.107-.324,1.486,1.486,0,0,1,.945.459,8.065,8.065,0,0,1,1.026,1.134,7.415,7.415,0,0,1,.837,1.377,2.9,2.9,0,0,1,.324,1.134,1.393,1.393,0,0,1-.432.864,7.771,7.771,0,0,1-1.107,1,6.405,6.405,0,0,1-1.377.81A3.169,3.169,0,0,1,194.886-32.562ZM216.054,0a7.393,7.393,0,0,1-1.863-.378,22.389,22.389,0,0,1-2.619-.972,19.7,19.7,0,0,1-2.322-1.188q-.972-.594-.972-.972V-24.084l-4-.324a5.136,5.136,0,0,1,.189-1.485,3,3,0,0,1,.351-.837l2.592-.27a1.175,1.175,0,0,0,1.08-.7,4.682,4.682,0,0,0,.216-1.566V-34.83a9.5,9.5,0,0,1,1.566-1,3.728,3.728,0,0,1,1.674-.513l1.08.594V-27h6.048l.54.7a5.435,5.435,0,0,1-.3,1.485,9.957,9.957,0,0,1-.4,1l-5.832-.216V-4.266L219.4-3.132a1.768,1.768,0,0,1,.27.459,1.846,1.846,0,0,1,.162.783,3.9,3.9,0,0,1-1.107.918,8.984,8.984,0,0,1-1.458.7A3.649,3.649,0,0,1,216.054,0Z" transform="translate(33 92)" fill="#fff"/></g><g transform="translate(1243 343)"><g transform="matrix(1, 0, 0, 1, -737, -60)" filter="url(#c)"><path d="M79,34H4a4,4,0,0,1-4-4V4A4,4,0,0,1,4,0H79V34ZM67.146,14.45a3.693,3.693,0,0,0-1.162.2,7.933,7.933,0,0,0-1.143.477c-.368.189-.7.377-.983.561l-.688.442-.011.007c-.064.252-.131.567-.2.935s-.126.793-.17,1.253-.066.94-.066,1.44a7.1,7.1,0,0,0,.151,1.524,2.53,2.53,0,0,0,.34.926,3.541,3.541,0,0,0,.415.373,6.637,6.637,0,0,0,.794.543,6.3,6.3,0,0,0,1,.477,2.951,2.951,0,0,0,1.021.2,3.557,3.557,0,0,0,1.228-.215,5.507,5.507,0,0,0,1.067-.524,6.928,6.928,0,0,0,.822-.608.592.592,0,0,0-.076-.3.966.966,0,0,0-.151-.205c-.1.027-.27.067-.481.112-.234.051-.5.1-.784.159s-.566.1-.822.14a4.52,4.52,0,0,1-.595.056,1.327,1.327,0,0,1-.519-.14,5.062,5.062,0,0,1-.624-.337,6.508,6.508,0,0,1-.538-.373,1.838,1.838,0,0,1-.284-.253,1.927,1.927,0,0,1-.17-.616,9.9,9.9,0,0,1-.132-1.16h.046c.63,0,1.221-.021,1.757-.064.561-.045,1.006-.094,1.361-.15a4.683,4.683,0,0,0,.689-.139,4.15,4.15,0,0,0,.463-.3,5.923,5.923,0,0,0,.519-.43,2.415,2.415,0,0,0,.435-.524,7.966,7.966,0,0,0-.057-.916c-.038-.325-.085-.62-.141-.878a1.57,1.57,0,0,0-.18-.524,1.922,1.922,0,0,0-.538-.477,6.116,6.116,0,0,0-.86-.477A1.914,1.914,0,0,0,67.146,14.45ZM54.224,20.771a3.744,3.744,0,0,0-.378.7,2.079,2.079,0,0,0-.189.814,1.113,1.113,0,0,0,.34.355,6.577,6.577,0,0,0,.756.515,5.735,5.735,0,0,0,.963.458,2.876,2.876,0,0,0,.983.187,4.645,4.645,0,0,0,1.076-.131,7.064,7.064,0,0,0,1.049-.337,8.487,8.487,0,0,0,.888-.42,4.123,4.123,0,0,0,.614-.4,4.348,4.348,0,0,0,.217-.8,5.977,5.977,0,0,0,.123-1.2,3.394,3.394,0,0,0-.029-.44,2.033,2.033,0,0,0-.085-.382,1.871,1.871,0,0,0-.727-.477,10.342,10.342,0,0,0-1.21-.43c-.418-.123-.85-.246-1.322-.374l-.072-.02-1.033-.279a1.65,1.65,0,0,1-.529-.2,2.414,2.414,0,0,1-.057-.383c-.013-.155-.019-.315-.019-.477s.006-.344.019-.5a2.957,2.957,0,0,1,.057-.411A3.217,3.217,0,0,1,56.245,16c.3-.049.648-.1,1.03-.14a9.5,9.5,0,0,1,1.049-.065c.1,0,.2.154.292.458a7.342,7.342,0,0,0,.463,1.094.914.914,0,0,0,.236.113,1.1,1.1,0,0,0,.368.056,1.218,1.218,0,0,0,.35-.486,6.075,6.075,0,0,0,.3-.748,2.105,2.105,0,0,0,.123-.486c0-.063-.1-.166-.293-.318a5.183,5.183,0,0,0-.737-.459,7.265,7.265,0,0,0-.907-.4,2.369,2.369,0,0,0-.784-.168,3.564,3.564,0,0,0-.992.158A7.939,7.939,0,0,0,55.7,15c-.331.151-.642.306-.925.458a5.482,5.482,0,0,0-.643.392,3.887,3.887,0,0,0-.217.814,5.931,5.931,0,0,0-.086,1c0,.173.006.349.019.523a2.448,2.448,0,0,0,.076.468,1.64,1.64,0,0,0,.624.355c.338.136.744.28,1.209.429.443.143.894.281,1.38.421.452.13.84.253,1.152.365a1.367,1.367,0,0,1,.51.243,1.341,1.341,0,0,1,.047.29c.007.112.01.219.01.328a4.656,4.656,0,0,1-.038.58,3.033,3.033,0,0,1-.095.486,3.9,3.9,0,0,1-1.039.234,11.408,11.408,0,0,1-1.171.066c-.15,0-.3-.006-.435-.019a2.534,2.534,0,0,1-.359-.056,4.473,4.473,0,0,1-.5-.73c-.168-.294-.3-.54-.387-.729a1.114,1.114,0,0,0-.6-.149Zm-7.216-4.863a1.425,1.425,0,0,1,.387.094,4.532,4.532,0,0,1,.567.243,2.139,2.139,0,0,1,.491.337.548.548,0,0,1,.2.393v4.151a4.094,4.094,0,0,1-.076.907.816.816,0,0,1-.217.43.729.729,0,0,1-.35.159l-.472.094a.8.8,0,0,0-.122.177.56.56,0,0,0-.066.271c.147.049.373.111.689.187s.647.149.982.215c.366.072.671.127.935.168a4.636,4.636,0,0,0,.548.066,1.547,1.547,0,0,0,.5-.1,3.4,3.4,0,0,0,.557-.252,1,1,0,0,0,.359-.3.672.672,0,0,0-.047-.261.5.5,0,0,0-.085-.15l-1.643-.168a1.971,1.971,0,0,0,.123-.392,2.991,2.991,0,0,0,.066-.673V16.3a.967.967,0,0,0-.293-.626,3.253,3.253,0,0,0-.765-.608,5,5,0,0,0-.983-.448,3.035,3.035,0,0,0-.944-.168,1.687,1.687,0,0,0-.718.205,8.4,8.4,0,0,0-.869.5c-.289.192-.6.4-.925.617a1.254,1.254,0,0,0-.406-.944,1.307,1.307,0,0,0-.916-.383,2.571,2.571,0,0,0-.775.168,4.934,4.934,0,0,0-.794.337.7.7,0,0,0-.122.2,1.038,1.038,0,0,0-.085.346l1.21.43a.358.358,0,0,1,.227.178.636.636,0,0,1,.057.271v4.749a2.249,2.249,0,0,1-.2,1.169.79.79,0,0,1-.5.328l-.51.094a.764.764,0,0,0-.122.177.56.56,0,0,0-.067.271c.147.049.376.11.7.187s.658.148,1,.215c.367.071.682.126.963.168a5.031,5.031,0,0,0,.567.066,1.435,1.435,0,0,0,.472-.1,3.275,3.275,0,0,0,.538-.252,1.013,1.013,0,0,0,.349-.3.672.672,0,0,0-.047-.261.5.5,0,0,0-.085-.15L44.7,22.566a1.978,1.978,0,0,0,.122-.4,3.016,3.016,0,0,0,.067-.664V16.582l.016-.006.428-.152c.212-.074.434-.155.624-.225.218-.08.428-.149.623-.205A1.773,1.773,0,0,1,47.008,15.908Zm-9.54-1.458a3.693,3.693,0,0,0-1.162.2,7.983,7.983,0,0,0-1.143.477c-.368.189-.7.377-.983.561l-.7.449c-.064.252-.131.567-.2.935s-.126.793-.17,1.253-.066.94-.066,1.44a7.1,7.1,0,0,0,.151,1.524,2.53,2.53,0,0,0,.34.926,3.705,3.705,0,0,0,.415.373,6.637,6.637,0,0,0,.794.543,6.3,6.3,0,0,0,1,.477,2.951,2.951,0,0,0,1.021.2A3.549,3.549,0,0,0,38,23.585a5.507,5.507,0,0,0,1.067-.524,6.926,6.926,0,0,0,.822-.608.592.592,0,0,0-.076-.3.967.967,0,0,0-.151-.205c-.1.027-.262.065-.482.112-.235.051-.5.1-.784.159s-.566.1-.822.14a4.52,4.52,0,0,1-.595.056,1.335,1.335,0,0,1-.519-.14,5.063,5.063,0,0,1-.624-.337,6.509,6.509,0,0,1-.538-.373,1.838,1.838,0,0,1-.284-.253,1.927,1.927,0,0,1-.17-.616,9.9,9.9,0,0,1-.132-1.16h.046c.63,0,1.221-.021,1.758-.064.561-.045,1.006-.094,1.36-.15a4.682,4.682,0,0,0,.689-.139,4.152,4.152,0,0,0,.463-.3,6.071,6.071,0,0,0,.52-.43,2.434,2.434,0,0,0,.434-.524,7.966,7.966,0,0,0-.057-.916c-.038-.325-.085-.62-.141-.878a1.593,1.593,0,0,0-.179-.524,1.928,1.928,0,0,0-.539-.477,6.114,6.114,0,0,0-.86-.477A1.914,1.914,0,0,0,37.468,14.45Zm-8.842,0a3.589,3.589,0,0,0-1.209.215,8.662,8.662,0,0,0-1.153.5,9.717,9.717,0,0,0-.944.561l-.586.4c-.062.247-.127.553-.2.935s-.126.793-.17,1.253-.067.946-.067,1.44a7.1,7.1,0,0,0,.151,1.524,2.53,2.53,0,0,0,.34.926,3.65,3.65,0,0,0,.416.373,6.693,6.693,0,0,0,.793.543,6.274,6.274,0,0,0,1,.477,2.949,2.949,0,0,0,1.02.2,3.073,3.073,0,0,0,1.124-.2,3.985,3.985,0,0,0,.907-.5c.272-.2.523-.4.746-.6a.684.684,0,0,0-.057-.29.618.618,0,0,0-.113-.177l-.024.005c-.083.017-.278.058-.619.125-.323.064-.654.121-.982.168a5.821,5.821,0,0,1-.775.075,1.263,1.263,0,0,1-.509-.14,4.863,4.863,0,0,1-.6-.337c-.2-.127-.374-.253-.529-.373a1.838,1.838,0,0,1-.283-.253,2.067,2.067,0,0,1-.141-.486,8.741,8.741,0,0,1-.142-.972c-.038-.385-.057-.794-.057-1.216,0-.248.013-.525.038-.823s.057-.58.094-.841a5.218,5.218,0,0,1,.113-.6c.112-.05.288-.117.539-.206s.529-.17.86-.252a4.242,4.242,0,0,1,1.02-.122c.113,0,.24.1.378.3a6.688,6.688,0,0,1,.406.673c.137.258.239.454.312.6a1.52,1.52,0,0,0,.245.113.988.988,0,0,0,.34.056,1.3,1.3,0,0,0,.359-.449,7.244,7.244,0,0,0,.33-.663,1.006,1.006,0,0,0,.123-.439c0-.063-.1-.176-.293-.347a6.626,6.626,0,0,0-.708-.524,6.935,6.935,0,0,0-.831-.467A1.676,1.676,0,0,0,28.626,14.45Zm-8.916,0a2.571,2.571,0,0,0-.775.168,4.934,4.934,0,0,0-.794.337.7.7,0,0,0-.122.2,1.082,1.082,0,0,0-.085.365l1.152.411a.362.362,0,0,1,.208.168.622.622,0,0,1,.057.281v4.749a3.3,3.3,0,0,1-.094.907.869.869,0,0,1-.246.43.791.791,0,0,1-.359.159l-.51.075a1.557,1.557,0,0,0-.122.2.56.56,0,0,0-.066.271c.145.049.374.11.7.187s.658.148,1,.215c.366.071.684.126.973.168a5.281,5.281,0,0,0,.576.066,1.514,1.514,0,0,0,.482-.1,3.443,3.443,0,0,0,.557-.252,1,1,0,0,0,.359-.3.672.672,0,0,0-.047-.261.978.978,0,0,0-.086-.168l-1.643-.15a1.97,1.97,0,0,0,.123-.392,3.039,3.039,0,0,0,.066-.673V15.816a1.33,1.33,0,0,0-.4-.964A1.248,1.248,0,0,0,19.71,14.45ZM13.873,8.84a3.538,3.538,0,0,0-.586.075,7.018,7.018,0,0,0-.784.2,3.566,3.566,0,0,0-.595.233,1.294,1.294,0,0,0-.094.187,1.05,1.05,0,0,0-.076.3l1.492.486a.354.354,0,0,1,.227.177.684.684,0,0,1,.057.29V21.126a2.249,2.249,0,0,1-.2,1.169.79.79,0,0,1-.5.328l-.51.075a1.557,1.557,0,0,0-.122.2.56.56,0,0,0-.066.271c.145.049.374.11.7.187s.658.148,1,.215c.367.071.682.126.963.168a4.972,4.972,0,0,0,.586.066,1.514,1.514,0,0,0,.482-.1,3.443,3.443,0,0,0,.557-.252,1,1,0,0,0,.359-.3.672.672,0,0,0-.047-.261.5.5,0,0,0-.085-.15l-1.643-.168a1.918,1.918,0,0,0,.122-.392,2.983,2.983,0,0,0,.067-.673v-11.3a1.329,1.329,0,0,0-.4-.963A1.245,1.245,0,0,0,13.873,8.84Zm6.2,1.235a1.08,1.08,0,0,0-.387.112,3.067,3.067,0,0,0-.5.281,2.693,2.693,0,0,0-.416.346.505.505,0,0,0-.17.328.886.886,0,0,0,.123.383,2.881,2.881,0,0,0,.311.467,2.2,2.2,0,0,0,.387.383.6.6,0,0,0,.312.15,1.122,1.122,0,0,0,.415-.1,2.27,2.27,0,0,0,.482-.28,2.725,2.725,0,0,0,.387-.347.48.48,0,0,0,.151-.3.993.993,0,0,0-.113-.393,2.567,2.567,0,0,0-.292-.476,2.8,2.8,0,0,0-.359-.393A.527.527,0,0,0,20.068,10.075Zm45.642,8.4a6.881,6.881,0,0,1-.774-.047,1.24,1.24,0,0,1-.567-.159,6.73,6.73,0,0,1,.038-.71c.026-.246.054-.463.085-.664a4.6,4.6,0,0,1,.1-.514,3.677,3.677,0,0,1,.586-.206c.265-.075.535-.141.8-.2a3.314,3.314,0,0,1,.595-.084,1.289,1.289,0,0,1,.538.149,4.21,4.21,0,0,1,.557.318c.163.112.246.194.246.243s.032.171.057.356.051.4.076.617a5.444,5.444,0,0,1,.038.6,1.933,1.933,0,0,1-.576.158c-.27.044-.569.078-.888.1S66,18.471,65.71,18.471Zm-29.678,0a6.9,6.9,0,0,1-.774-.047,1.24,1.24,0,0,1-.567-.159,6.731,6.731,0,0,1,.038-.71c.026-.246.054-.463.085-.664a4.6,4.6,0,0,1,.1-.514,3.679,3.679,0,0,1,.586-.206c.265-.075.535-.141.8-.2a3.335,3.335,0,0,1,.595-.084,1.289,1.289,0,0,1,.538.149,4.209,4.209,0,0,1,.557.318c.163.112.246.194.246.243s.032.171.057.356.051.4.076.617a5.447,5.447,0,0,1,.038.6,1.933,1.933,0,0,1-.576.158c-.27.044-.569.078-.888.1S36.321,18.471,36.031,18.471Z" transform="translate(737 60)" fill="#fff"/></g><g transform="matrix(1, 0, 0, 1, -737, -60)" filter="url(#e)"><path d="M44,34H0V0H44a4,4,0,0,1,4,4V30A4,4,0,0,1,44,34ZM32.967,11.589H36.1a1.085,1.085,0,0,0-.151.337,1.972,1.972,0,0,0-.076.58v8.247a9.33,9.33,0,0,1-.047,1.066.889.889,0,0,1-.245.571,1.325,1.325,0,0,1-.67.252l-.547.076a.764.764,0,0,0-.122.177.56.56,0,0,0-.066.271,4.374,4.374,0,0,0,.546.14c.283.06.579.116.877.168.324.056.65.11.971.159s.617.09.867.122.425.047.509.047a2.028,2.028,0,0,0,.8-.2,2.6,2.6,0,0,0,.707-.44.675.675,0,0,0-.047-.262.5.5,0,0,0-.085-.149l-2-.205a1.844,1.844,0,0,0,.226-.477,2.458,2.458,0,0,0,.113-.795V12.749a3.676,3.676,0,0,1,.047-.636.57.57,0,0,1,.246-.392,1.134,1.134,0,0,1,.613-.13c.369,0,.75.019,1.131.056.426.041.7.07.886.094l.4,2.955a1.553,1.553,0,0,0,.349.122,2.525,2.525,0,0,0,.613.066c.088-.3.19-.739.3-1.309a13.742,13.742,0,0,0,.227-1.907,3.946,3.946,0,0,0-.745-.58,3.468,3.468,0,0,0-1.028-.449H32.854a3.5,3.5,0,0,0-1.018.411,2.933,2.933,0,0,0-.774.617c.025.458.069.9.132,1.328s.133.8.208,1.122.136.573.188.767H31.6a2.568,2.568,0,0,0,.621-.065,1.548,1.548,0,0,0,.349-.122l.4-3.1Zm-7.977-.954a1.011,1.011,0,0,0-.349.1,3.724,3.724,0,0,0-.462.243,1.463,1.463,0,0,0-.339.272.628.628,0,0,0,.1.215,1.474,1.474,0,0,0,.122.14h1.829c-.012.013-.072.113-.179.3a2.732,2.732,0,0,0-.16,1.159v7.686a9.427,9.427,0,0,1-.047,1.076.876.876,0,0,1-.245.561,1.325,1.325,0,0,1-.67.252l-.547.076a.764.764,0,0,0-.122.177.56.56,0,0,0-.066.271,4.374,4.374,0,0,0,.546.14c.283.06.579.116.878.168.324.056.65.11.971.159s.617.09.867.122.425.047.509.047a1.955,1.955,0,0,0,.792-.2,2.638,2.638,0,0,0,.7-.44.675.675,0,0,0-.047-.262.5.5,0,0,0-.085-.149l-1.98-.205a1.5,1.5,0,0,0,.226-.468,2.537,2.537,0,0,0,.113-.8V13.122a2.918,2.918,0,0,1,.113-.953.816.816,0,0,1,.329-.43,2.361,2.361,0,0,1,.518-.224l.83-.244a.957.957,0,0,0-.076-.392.624.624,0,0,0-.169-.243ZM17.6,11.813h0l.15.055a3.279,3.279,0,0,0-.122.739,9.446,9.446,0,0,0-.01,1.281l.34,6.844a7.275,7.275,0,0,1-.01,1.141.766.766,0,0,1-.264.552,1.5,1.5,0,0,1-.688.214l-.547.076a.764.764,0,0,0-.122.177.56.56,0,0,0-.066.271,4.474,4.474,0,0,0,.537.14c.268.058.563.115.877.168s.649.109.971.159.608.09.859.122a5.187,5.187,0,0,0,.527.047,1.955,1.955,0,0,0,.792-.2,2.647,2.647,0,0,0,.7-.44.673.673,0,0,0-.048-.262.5.5,0,0,0-.085-.149l-1.98-.205a1.056,1.056,0,0,0,.226-.468,2.749,2.749,0,0,0,.076-.954l-.4-8.022a2.976,2.976,0,0,1,.057-.8.883.883,0,0,1,.311-.486,1.791,1.791,0,0,1,.651-.3l.81-.244a.969.969,0,0,0-.075-.382.632.632,0,0,0-.17-.253H16.636c-.153.617-.356,1.29-.6,2s-.521,1.447-.82,2.2c-.288.724-.586,1.438-.887,2.122-.288.657-.558,1.252-.8,1.767-.236.5-.421.888-.547,1.15L9.244,10.635H6.114a1.085,1.085,0,0,0-.358.1,3.5,3.5,0,0,0-.472.243,1.5,1.5,0,0,0-.339.272.636.636,0,0,0,.1.215,1.358,1.358,0,0,0,.122.14h1.9a2.375,2.375,0,0,0-.2.515,4.813,4.813,0,0,0-.16,1.093l-.4,7.462a7.015,7.015,0,0,1-.132,1.14,1.114,1.114,0,0,1-.293.59,1.083,1.083,0,0,1-.575.233l-.546.076a.741.741,0,0,0-.122.177.56.56,0,0,0-.067.271,7.7,7.7,0,0,0,.764.187c.365.076.755.148,1.159.215.436.072.806.127,1.132.168a6.73,6.73,0,0,0,.679.066,1.648,1.648,0,0,0,.481-.085,3.648,3.648,0,0,0,.556-.224,1.8,1.8,0,0,0,.472-.328.675.675,0,0,0-.047-.262.5.5,0,0,0-.085-.149l-2.47-.262a.887.887,0,0,0,.226-.383,2.872,2.872,0,0,0,.151-.944l.377-7.891c.025-.393.05-.682.075-.86s.05-.324.076-.449h.113a8.081,8.081,0,0,0,.16.814,8.473,8.473,0,0,0,.33,1.057l3.394,8.321h0A1.941,1.941,0,0,0,13,21.977a1.461,1.461,0,0,0,.491-.347l4.11-9.816Z" transform="translate(820 60)" fill="#fff"/></g></g></g></svg>